<?xml version="1.0" encoding="UTF-8"?>
<svg width="29px" height="28px" viewBox="0 0 29 28" version="1.1" xmlns="http://www.w3.org/2000/svg" xmlns:xlink="http://www.w3.org/1999/xlink">
    <title>Group 5</title>
    <g id="Page-1" stroke="none" stroke-width="1" fill="none" fill-rule="evenodd">
        <g id="Desktop-Copy-53" transform="translate(-235.000000, -52.000000)" fill="#8BB6C9" fill-rule="nonzero">
            <g id="Group-5" transform="translate(235.000000, 52.000000)">
                <g id="Group-4" transform="translate(0.000000, 11.000000)">
                    <path d="M10.9664,4.2912 C11.2003499,4.2912 11.3951197,4.45997543 11.4355136,4.68233036 L11.4432,4.768 L11.4432,5.7216 C11.4432,6.46518362 10.8759763,7.07614755 10.1505679,7.14545271 L10.0128,7.152 L6.1984,7.152 L6.1984,8.1885632 C6.3786304,8.2515008 6.54408,8.3497216 6.6852128,8.4779808 C6.7367072,8.5256608 6.78459911,8.5771552 6.82846471,8.6318989 L6.8911904,8.7163808 L21.4660128,4.6673952 C21.5027264,4.14990827 21.8170866,3.69692509 22.2798188,3.4788531 L22.4096,3.4253312 L22.4096,2.8608 L18.5952,2.8608 C17.8516164,2.8608 17.2406524,2.29357628 17.1713473,1.56816793 L17.1648,1.4304 L17.1648,0.4768 C17.1648,0.242850133 17.3335754,0.0480802765 17.5559304,0.00768635611 L17.6416,3.47037066e-12 L28.1312,3.47569973e-12 C28.3943936,3.47569973e-12 28.6080938,0.2136064 28.6080938,0.4768 C28.6080938,0.710749867 28.4392443,0.905519723 28.2168729,0.945913644 L28.1312,0.9536 L18.1184,0.9536 L18.1184,1.4304 C18.1184,1.66434987 18.2871754,1.85911972 18.5095304,1.89951364 L18.5952,1.9072 L27.1776,1.9072 C27.4407936,1.9072 27.6544,2.1208064 27.6544,2.384 C27.6544,2.61794987 27.4856246,2.81271972 27.2632696,2.85311364 L27.1776,2.8608 L23.3632,2.8608 L23.3632,3.4253312 C23.644512,3.5249824 23.88768,3.7099808 24.0583744,3.955056 C24.5094272,4.6015968 24.350176,5.4913056 23.7036352,5.9423584 C23.0975032,6.3652204 22.2776493,6.2516824 21.8058792,5.70310514 L21.7163328,5.5876192 L14.92384,7.4743168 L17.02176,13.3504 L17.6416,13.3504 C18.3851836,13.3504 18.9961476,13.9176237 19.0654527,14.6430321 L19.072,14.7808 L19.072,15.7344 C19.072,15.9683499 18.9032246,16.1631197 18.6808696,16.2035136 L18.5952,16.2112 L16.688,16.2112 C16.4248064,16.2112 16.2112,15.9975936 16.2112,15.7344 C16.2112,15.5004501 16.3799754,15.3056803 16.6023304,15.2652864 L16.688,15.2576 L18.1184,15.2576 L18.1184,14.7808 C18.1184,14.5468501 17.9496246,14.3520803 17.7272696,14.3116864 L17.6416,14.304 L10.9664,14.304 C10.7324501,14.304 10.5376803,14.4727754 10.4972864,14.6951304 L10.4896,14.7808 L10.4896,15.2576 L14.7808,15.2576 C15.0439936,15.2576 15.2576,15.4712064 15.2576,15.7344 C15.2576,15.9683499 15.0888246,16.1631197 14.8664696,16.2035136 L14.7808,16.2112 L10.0128,16.2112 C9.77885013,16.2112 9.58408028,16.0424246 9.54368636,15.8200696 L9.536,15.7344 L9.536,14.7808 C9.536,14.0372164 10.1032237,13.4262524 10.8286321,13.3569473 L10.9664,13.3504 L11.58624,13.3504 L13.545888,7.857664 L7.1434176,9.6380352 C7.1013996,10.3170282 6.58500285,10.8635975 5.92306046,10.95441 L5.7888288,10.9664 L5.7216,10.9664 C5.116064,10.9668768 4.5763264,10.5854368 4.37464,10.0147072 C4.12737713,9.31555012 4.45789687,8.55219497 5.11735717,8.24577901 L5.2448,8.193808 L5.2448,7.152 L1.4304,7.152 C0.686816376,7.152 0.0758524457,6.58477628 0.00654728988,5.85936793 L9.29016863e-13,5.7216 L9.29016863e-13,4.768 C9.29016863e-13,4.53405013 0.168775427,4.33928028 0.391130355,4.29888636 L0.4768,4.2912 L10.9664,4.2912 Z M14.304,8.5700032 L12.5965792,13.3504 L16.0114208,13.3504 L14.304,8.5700032 Z M5.7216,9.0592 L5.6996672,9.0592 C5.5728384,9.0644448 5.4536384,9.1207072 5.3682912,9.2146368 C5.1909216,9.409648 5.2052256,9.7114624 5.4002368,9.8883552 C5.4932128,9.974656 5.6171808,10.0189984 5.7435328,10.0123232 C5.8698848,10.0066016 5.988608,9.950816 6.0739552,9.8573632 C6.1535808,9.769632 6.197924,9.6552 6.197924,9.5364768 C6.1984,9.2728064 5.9847936,9.0592 5.7216,9.0592 Z M10.4896,5.2448 L0.9536,5.2448 L0.9536,5.7216 C0.9536,5.95554987 1.12237543,6.15031972 1.34473036,6.19071364 L1.4304,6.1984 L10.0128,6.1984 C10.2467499,6.1984 10.4415197,6.02962457 10.4819136,5.80726964 L10.4896,5.7216 L10.4896,5.2448 Z M22.8864,4.2912 C22.6232064,4.2912 22.4096,4.5048064 22.4096,4.768 C22.4096,5.0311936 22.6232064,5.2448 22.8864,5.2448 C23.1495936,5.2448 23.3632,5.0311936 23.3632,4.768 C23.3632,4.5048064 23.1495936,4.2912 22.8864,4.2912 Z" id="Combined-Shape"></path>
                    <circle id="Oval" cx="14.304" cy="11.92" r="1"></circle>
                </g>
                <g id="Group-39" transform="translate(18.000000, 0.000000)">
                    <path d="M9.17112141,3.24954504 L4.81656141,0.05620104 C4.71435625,-0.01873368 4.5754095,-0.01873368 4.47320435,0.05620104 L0.11864435,3.24954504 C-0.0106497936,3.34436558 -0.0385915536,3.52602331 0.0562289904,3.65531746 C0.151067678,3.7846116 0.33274355,3.8125715 0.462001406,3.71773282 L0.580626878,3.63073234 L0.580626878,8.45507678 C0.580626878,8.9152812 0.955046462,9.28970078 1.41525088,9.28970078 L7.87451488,9.28970078 C8.33471929,9.28970078 8.70913888,8.9152812 8.70913888,8.45507678 L8.70913888,3.63075048 L8.82776435,3.71775096 C8.87951104,3.75569006 8.93962211,3.77397922 8.99920701,3.77397922 C9.08852992,3.77397922 9.17665533,3.73288306 9.23353677,3.6553356 C9.32835731,3.52602331 9.30041555,3.34434744 9.17112141,3.24954504 Z M8.12853088,8.45509493 C8.12853088,8.59516661 8.01458656,8.70911093 7.87451488,8.70911093 L1.41525088,8.70911093 C1.2751792,8.70911093 1.16123488,8.59516661 1.16123488,8.45509493 L1.16123488,3.20496523 L4.64488288,0.650290032 L8.12853088,3.20496523 L8.12853088,8.45509493 Z" id="Shape"></path>
                    <g id="heart-copy" transform="translate(2.286145, 3.447333)">
                        <path d="M4.35197905,0.421184858 C4.1068346,0.157315316 3.76332471,0.00717733314 3.40342885,0.00659314883 C3.04324516,0.00703818766 2.69937797,0.157096659 2.45385638,0.421015896 L2.37017975,0.509562122 L2.28650311,0.421015896 C1.79932071,-0.104069485 0.97930758,-0.134224301 0.454976365,0.353649601 C0.431742229,0.375276786 0.409302084,0.397738843 0.387705553,0.421015896 C-0.129102606,0.979247721 -0.129102606,1.84196963 0.387705553,2.40020146 L2.24721053,4.36395181 C2.31154358,4.43196413 2.41875209,4.43487625 2.48666802,4.37045189 C2.48889119,4.36834483 2.49105482,4.36617813 2.49315889,4.36395181 L4.35198897,2.40020146 C4.86875743,1.84202927 4.86875743,0.979357049 4.35197905,0.421184858 Z M4.10688423,2.16662587 L4.10671551,2.16662587 L2.37017975,4.00078208 L0.63348519,2.16662587 C0.23867361,1.74008532 0.23867361,1.08096307 0.63348519,0.654422515 C0.992021347,0.265272338 1.59770677,0.240872182 1.98630538,0.599917239 C2.00517257,0.617350181 2.02332517,0.635528545 2.0407334,0.654422515 L2.24721053,0.872562886 C2.31525548,0.940267106 2.42511394,0.940267106 2.49315889,0.872562886 L2.69963602,0.654591477 C3.05817217,0.2654413 3.6638576,0.241041145 4.05245621,0.600086202 C4.0713234,0.617519144 4.089476,0.635697508 4.10688423,0.654591477 C4.50512982,1.08180789 4.50804773,1.74213274 4.10688423,2.16662587 Z" id="Shape"></path>
                    </g>
                </g>
                <g id="Group-39-Copy" transform="translate(1.000000, 4.000000)">
                    <path d="M9.17112141,3.24954504 L4.81656141,0.05620104 C4.71435625,-0.01873368 4.5754095,-0.01873368 4.47320435,0.05620104 L0.11864435,3.24954504 C-0.0106497936,3.34436558 -0.0385915536,3.52602331 0.0562289904,3.65531746 C0.151067678,3.7846116 0.33274355,3.8125715 0.462001406,3.71773282 L0.580626878,3.63073234 L0.580626878,8.45507678 C0.580626878,8.9152812 0.955046462,9.28970078 1.41525088,9.28970078 L7.87451488,9.28970078 C8.33471929,9.28970078 8.70913888,8.9152812 8.70913888,8.45507678 L8.70913888,3.63075048 L8.82776435,3.71775096 C8.87951104,3.75569006 8.93962211,3.77397922 8.99920701,3.77397922 C9.08852992,3.77397922 9.17665533,3.73288306 9.23353677,3.6553356 C9.32835731,3.52602331 9.30041555,3.34434744 9.17112141,3.24954504 Z M8.12853088,8.45509493 C8.12853088,8.59516661 8.01458656,8.70911093 7.87451488,8.70911093 L1.41525088,8.70911093 C1.2751792,8.70911093 1.16123488,8.59516661 1.16123488,8.45509493 L1.16123488,3.20496523 L4.64488288,0.650290032 L8.12853088,3.20496523 L8.12853088,8.45509493 Z" id="Shape"></path>
                    <g id="heart-copy" transform="translate(2.286145, 3.447333)">
                        <path d="M4.35197905,0.421184858 C4.1068346,0.157315316 3.76332471,0.00717733314 3.40342885,0.00659314883 C3.04324516,0.00703818766 2.69937797,0.157096659 2.45385638,0.421015896 L2.37017975,0.509562122 L2.28650311,0.421015896 C1.79932071,-0.104069485 0.97930758,-0.134224301 0.454976365,0.353649601 C0.431742229,0.375276786 0.409302084,0.397738843 0.387705553,0.421015896 C-0.129102606,0.979247721 -0.129102606,1.84196963 0.387705553,2.40020146 L2.24721053,4.36395181 C2.31154358,4.43196413 2.41875209,4.43487625 2.48666802,4.37045189 C2.48889119,4.36834483 2.49105482,4.36617813 2.49315889,4.36395181 L4.35198897,2.40020146 C4.86875743,1.84202927 4.86875743,0.979357049 4.35197905,0.421184858 Z M4.10688423,2.16662587 L4.10671551,2.16662587 L2.37017975,4.00078208 L0.63348519,2.16662587 C0.23867361,1.74008532 0.23867361,1.08096307 0.63348519,0.654422515 C0.992021347,0.265272338 1.59770677,0.240872182 1.98630538,0.599917239 C2.00517257,0.617350181 2.02332517,0.635528545 2.0407334,0.654422515 L2.24721053,0.872562886 C2.31525548,0.940267106 2.42511394,0.940267106 2.49315889,0.872562886 L2.69963602,0.654591477 C3.05817217,0.2654413 3.6638576,0.241041145 4.05245621,0.600086202 C4.0713234,0.617519144 4.089476,0.635697508 4.10688423,0.654591477 C4.50512982,1.08180789 4.50804773,1.74213274 4.10688423,2.16662587 Z" id="Shape"></path>
                    </g>
                </g>
            </g>
        </g>
    </g>
</svg>