<svg width="100" height="100" viewBox="0 0 100 100" fill="none" xmlns="http://www.w3.org/2000/svg">
<circle cx="50" cy="50" r="42" stroke="#AADDEB" stroke-width="0.8"/>
<circle cx="50" cy="50" r="49" stroke="#AADDEB" stroke-width="0.8"/>
<rect x="8" y="50" width="8" height="1" fill="#ACE3EF"/>
<rect x="84" y="50" width="8" height="1" fill="#ACE3EF"/>
<rect x="50.5" y="8.5" width="8" height="1" transform="rotate(90 50.5 8.5)" fill="#ACE3EF"/>
<rect x="50.5" y="84.5" width="8" height="1" transform="rotate(90 50.5 84.5)" fill="#ACE3EF"/>
<rect x="80.1813" y="20.7844" width="8" height="0.8" transform="rotate(135 80.1813 20.7844)" fill="#ACE3EF"/>
<rect x="26.4412" y="74.5245" width="8" height="0.8" transform="rotate(135 26.4412 74.5245)" fill="#ACE3EF"/>
<rect x="20.7843" y="20.2186" width="8" height="0.8" transform="rotate(45 20.7843 20.2186)" fill="#ACE3EF"/>
<rect x="74.5244" y="73.9588" width="8" height="0.8" transform="rotate(45 74.5244 73.9588)" fill="#ACE3EF"/>
<path fill-rule="evenodd" clip-rule="evenodd" d="M30 31L52.3588 46.6412L68 69L45.8996 53.1004L30 31Z" stroke="#ACE3EF" stroke-width="0.72"/>
</svg>
