<svg width = "21" height = "27" viewBox = "0 0 21 27"  fill = "none" xmlns = "http://www.w3.org/2000/svg" >
          <path fill - rule = "evenodd" clip - rule = "evenodd" d = "M13.8275 0.495829C16.9541 1.44426 19.5068 3.96522 20.4895 7.07507C21.5352 10.3841 20.9582 13.8187 18.9067 16.4981L18.8962 16.5115L10.5011 27L2.09554 16.4981C0.724608 14.7078 0 12.5755 0 10.3318C0 8.68695 0.406048 7.04818 1.17432 5.59255C1.91766 4.18417 3.00013 2.94181 4.30463 1.99992C7.02712 0.0341395 10.4981 -0.514087 13.8275 0.495829ZM5.25 10.35C5.25 7.4788 7.63461 5.14286 10.5656 5.14286C13.4966 5.14286 15.8813 7.4788 15.8813 10.35C15.8813 13.2212 13.4966 15.5571 10.5656 15.5571C7.63461 15.5571 5.25 13.2212 5.25 10.35Z"
          fill = "#091322" />
 </svg>