 <svg width="16" height="16" viewBox="0 0 16 16" fill="none" xmlns="http://www.w3.org/2000/svg">
                  <path fill-rule="evenodd" clip-rule="evenodd"
                    d="M11.809 11.144L15.645 14.98C15.827 15.162 15.827 15.463 15.645 15.645C15.554 15.7395 15.4315 15.785 15.3125 15.785C15.1935 15.785 15.071 15.736 14.98 15.645L11.144 11.809C9.961 12.838 8.4175 13.461 6.7305 13.461C3.0205 13.461 0 10.4405 0 6.7305C0 3.0205 3.017 0 6.7305 0C10.4405 0 13.461 3.017 13.461 6.7305C13.461 8.4175 12.838 9.961 11.809 11.144ZM6.727 0.945C3.5385 0.945 0.9415 3.5385 0.9415 6.7305C0.9415 9.9225 3.5385 12.5195 6.727 12.5195C9.919 12.5195 12.5125 9.919 12.5125 6.7305C12.5125 3.542 9.919 0.945 6.727 0.945Z"
                    fill="#111826" />
                </svg>