<svg width="106" height="22" viewBox="0 0 106 22" fill="none" xmlns="http://www.w3.org/2000/svg">
<mask id="mask0" mask-type="alpha" maskUnits="userSpaceOnUse" x="0" y="0" width="13" height="16">
<path fill-rule="evenodd" clip-rule="evenodd" d="M6.10352e-05 0.470215H12.0752V15.8386H6.10352e-05V0.470215Z" fill="white"/>
</mask>
<g mask="url(#mask0)">
<path fill-rule="evenodd" clip-rule="evenodd" d="M2.05524 10.4897H6.03765C7.13509 10.4897 8.07495 10.0988 8.85722 9.31703C9.6315 8.54181 10.0196 7.60571 10.0196 6.5078C10.0196 5.4033 9.6315 4.46297 8.85722 3.68822C8.07495 2.90642 7.13509 2.51551 6.03765 2.51551C4.93973 2.51551 3.99987 2.90642 3.21807 3.68822C2.44285 4.46297 2.05524 5.4033 2.05524 6.5078V10.4897ZM6.10352e-05 6.5078C6.10352e-05 4.836 0.588061 3.4121 1.765 2.23516C2.94853 1.05869 4.3729 0.470215 6.03764 0.470215C7.70192 0.470215 9.12582 1.05869 10.3098 2.23516C11.4868 3.4121 12.0752 4.836 12.0752 6.5078C12.0752 8.17254 11.4868 9.59315 10.3098 10.7701C9.12582 11.9466 7.70192 12.535 6.03764 12.535H2.05524V14.816C2.05524 15.0959 1.95504 15.3367 1.75371 15.5371C1.55332 15.738 1.30918 15.8387 1.02224 15.8387C0.742352 15.8387 0.501978 15.738 0.301117 15.5371C0.100256 15.3367 6.10352e-05 15.0959 6.10352e-05 14.816V6.5078Z" fill="white"/>
</g>
<path fill-rule="evenodd" clip-rule="evenodd" d="M24.2362 9.7153C24.0353 9.91616 23.7954 10.0168 23.5155 10.0168C23.2281 10.0168 22.9845 9.91616 22.7836 9.7153C22.5898 9.51444 22.4929 9.27407 22.4929 8.99418C22.4929 8.05432 22.1594 7.25464 21.4919 6.5942C20.8319 5.9267 20.0318 5.59319 19.0919 5.59319C18.152 5.59319 17.3519 5.9267 16.6924 6.5942C16.0249 7.25464 15.6914 8.05432 15.6914 8.99418V14.8163C15.6914 15.0957 15.5945 15.3366 15.4007 15.5374C15.1998 15.7383 14.9557 15.839 14.6687 15.839C14.3888 15.839 14.1489 15.7383 13.9481 15.5374C13.7467 15.3366 13.6465 15.0957 13.6465 14.8163V8.99418C13.6465 7.48749 14.1772 6.2033 15.2393 5.14113C16.301 4.07991 17.5852 3.54883 19.0919 3.54883C20.5991 3.54883 21.8828 4.07991 22.9449 5.14113C24.0066 6.2033 24.5377 7.48749 24.5377 8.99418C24.5377 9.27407 24.4371 9.51444 24.2362 9.7153Z" fill="white"/>
<path fill-rule="evenodd" clip-rule="evenodd" d="M28.7348 6.78751C27.9309 7.59143 27.5292 8.55998 27.5292 9.69365C27.5292 10.8198 27.9309 11.785 28.7348 12.5885C29.5307 13.3849 30.496 13.7828 31.6297 13.7828C32.7628 13.7828 33.7281 13.3849 34.525 12.5885C35.3284 11.785 35.7297 10.8198 35.7297 9.69365C35.7297 8.55998 35.3284 7.59143 34.525 6.78751C33.7281 5.9916 32.7628 5.59317 31.6297 5.59317C30.496 5.59317 29.5307 5.9916 28.7348 6.78751ZM31.6297 3.54834C33.3301 3.54834 34.7794 4.14763 35.9771 5.34574C37.1752 6.54385 37.775 7.99315 37.775 9.69365C37.775 11.3866 37.1752 12.8326 35.9771 14.0303C34.7794 15.2359 33.3301 15.8385 31.6297 15.8385C29.9362 15.8385 28.4874 15.2359 27.2817 14.0303C26.0832 12.8326 25.4843 11.3866 25.4843 9.69365C25.4843 7.99315 26.0832 6.54385 27.2817 5.34574C28.4874 4.14763 29.9362 3.54834 31.6297 3.54834Z" fill="white"/>
<mask id="mask1" mask-type="alpha" maskUnits="userSpaceOnUse" x="36" y="0" width="6" height="22">
<path fill-rule="evenodd" clip-rule="evenodd" d="M36.7742 0.470215H41.9834V21.0688H36.7742V0.470215Z" fill="white"/>
</mask>
<g mask="url(#mask1)">
<path fill-rule="evenodd" clip-rule="evenodd" d="M41.6819 0.771741C41.8827 0.973072 41.9834 1.21674 41.9834 1.50368C41.9834 1.79063 41.8827 2.03477 41.6819 2.23516C41.4805 2.43649 41.2406 2.53668 40.9607 2.53668C40.6733 2.53668 40.4315 2.43649 40.2344 2.23516C40.0369 2.03477 39.9386 1.79063 39.9386 1.50368C39.9386 1.21674 40.0369 0.973072 40.2344 0.771741C40.4315 0.57088 40.6733 0.470215 40.9607 0.470215C41.2406 0.470215 41.4805 0.57088 41.6819 0.771741ZM41.9721 16.969C41.9721 18.0952 41.5708 19.0604 40.7669 19.8639C39.9635 20.6673 38.9982 21.069 37.8716 21.069H37.7963C37.5169 21.069 37.2766 20.9688 37.0757 20.768C36.8748 20.5666 36.7742 20.323 36.7742 20.036C36.7742 19.7561 36.8748 19.5158 37.0757 19.3149C37.2766 19.114 37.5169 19.0134 37.7963 19.0134H37.8716C38.4384 19.0134 38.923 18.813 39.3247 18.4108C39.7193 18.0091 39.9169 17.5283 39.9169 16.969V4.57069C39.9169 4.2908 40.0171 4.0509 40.2184 3.85004C40.4188 3.64918 40.663 3.54851 40.9499 3.54851C41.2298 3.54851 41.4702 3.64918 41.671 3.85004C41.8714 4.0509 41.9721 4.2908 41.9721 4.57069V16.969Z" fill="white"/>
</g>
<path fill-rule="evenodd" clip-rule="evenodd" d="M46.3096 8.66067H54.2519C54.0651 7.94331 53.7067 7.31861 53.1761 6.788C52.3792 5.99162 51.4144 5.59319 50.2807 5.59319C49.1471 5.59319 48.1818 5.99162 47.3859 6.788C46.8548 7.31861 46.4959 7.94331 46.3096 8.66067ZM54.2843 12.621C54.5642 12.6497 54.7933 12.7715 54.973 12.9869C55.1522 13.2019 55.2312 13.4531 55.2096 13.7405C55.1809 14.0204 55.0591 14.25 54.8441 14.4292C54.2194 14.8812 53.534 15.2293 52.788 15.4725C52.0424 15.7171 51.2418 15.839 50.3885 15.839C48.6235 15.839 47.1385 15.2364 45.9328 14.0308C44.7343 12.8326 44.1354 11.3871 44.1354 9.69366C44.1354 7.99317 44.7343 6.54434 45.9328 5.34576C47.1385 4.14765 48.5873 3.54883 50.2807 3.54883C51.9812 3.54883 53.4305 4.14765 54.6286 5.34576C55.8263 6.54434 56.426 7.99317 56.426 9.69366C56.426 9.97355 56.3254 10.2139 56.1245 10.4148C55.9232 10.6156 55.6833 10.7158 55.4034 10.7158H46.3096C46.4959 11.4337 46.8548 12.0579 47.3859 12.589C48.1818 13.3854 49.1828 13.7833 50.3885 13.7833C51.0197 13.7833 51.5903 13.7048 52.0998 13.5467C52.6092 13.3891 53.0857 13.1558 53.5312 12.8468C53.7532 12.668 54.0044 12.5923 54.2843 12.621Z" fill="white"/>
<path fill-rule="evenodd" clip-rule="evenodd" d="M67.2305 12.1905C67.5103 12.1835 67.7502 12.2804 67.9516 12.4813C68.16 12.6746 68.2672 12.9117 68.2747 13.1916C68.2813 13.4714 68.1882 13.7151 67.9949 13.9235C67.4139 14.5331 66.7356 15.0031 65.9608 15.3333C65.1927 15.6701 64.3855 15.839 63.5392 15.839C61.8458 15.839 60.397 15.2364 59.1913 14.0308C57.9927 12.8326 57.3939 11.3871 57.3939 9.69366C57.3939 7.99317 57.9927 6.54434 59.1913 5.34576C60.397 4.14765 61.8458 3.54883 63.5392 3.54883C64.3855 3.54883 65.1927 3.71347 65.9608 4.04369L66.0145 4.06533C66.7681 4.39555 67.428 4.85795 67.9949 5.45348C68.1882 5.66186 68.2813 5.90553 68.2747 6.18495C68.2672 6.47236 68.16 6.71227 67.9516 6.90654C67.7502 7.10035 67.5103 7.19349 67.2305 7.18596C66.9435 7.17938 66.7031 7.07165 66.5098 6.86327C66.1363 6.46907 65.6984 6.16049 65.1964 5.93799L65.1536 5.92717C64.6442 5.70467 64.1056 5.59366 63.5392 5.59366C62.4056 5.59366 61.4403 5.99162 60.6444 6.788C59.8405 7.59192 59.4392 8.56 59.4392 9.69366C59.4392 10.8203 59.8405 11.7855 60.6444 12.589C61.4403 13.3854 62.4056 13.7833 63.5392 13.7833C64.1056 13.7833 64.6442 13.6756 65.1536 13.4602C65.6701 13.2386 66.1222 12.9225 66.5098 12.5137C66.7031 12.3053 66.9435 12.1981 67.2305 12.1905Z" fill="white"/>
<mask id="mask2" mask-type="alpha" maskUnits="userSpaceOnUse" x="69" y="0" width="11" height="16">
<path fill-rule="evenodd" clip-rule="evenodd" d="M69.9215 0.470215H79.7868V15.8386H69.9215V0.470215Z" fill="white"/>
</mask>
<g mask="url(#mask2)">
<path fill-rule="evenodd" clip-rule="evenodd" d="M69.9215 1.49286C69.9215 1.21298 70.0217 0.973072 70.223 0.771741C70.4234 0.57088 70.6638 0.470215 70.9437 0.470215C71.2235 0.470215 71.4634 0.57088 71.6648 0.771741C71.8656 0.973072 71.9663 1.21298 71.9663 1.49286V3.53769H78.3478C78.6347 3.53769 78.8751 3.63836 79.0689 3.83875C79.2697 4.04008 79.3704 4.28422 79.3704 4.57069C79.3704 4.85058 79.2697 5.09095 79.0689 5.29181C78.8751 5.49268 78.6347 5.59334 78.3478 5.59334H71.9663V10.5866C71.9663 11.4691 72.2782 12.2227 72.9024 12.8469C73.5337 13.4782 74.2906 13.7938 75.173 13.7938C75.7328 13.7938 76.2493 13.6612 76.723 13.3959C77.2108 13.1235 77.6017 12.75 77.8957 12.2763C78.0462 12.0397 78.2584 11.8892 78.5312 11.8243C78.8036 11.7598 79.0618 11.7993 79.306 11.9428C79.5426 12.0933 79.6931 12.3088 79.7575 12.5887C79.8225 12.8615 79.7792 13.116 79.6287 13.3526C79.1554 14.1273 78.5199 14.7337 77.724 15.1712C76.9276 15.6162 76.0771 15.8387 75.173 15.8387C73.7237 15.8387 72.4861 15.3259 71.4602 14.3C70.4342 13.2811 69.9215 12.0435 69.9215 10.5866V1.49286Z" fill="white"/>
</g>
<path fill-rule="evenodd" clip-rule="evenodd" d="M83.8906 6.78751C83.0867 7.59143 82.685 8.55998 82.685 9.69365C82.685 10.8198 83.0867 11.785 83.8906 12.5885C84.6865 13.3849 85.6518 13.7828 86.7854 13.7828C87.9186 13.7828 88.8839 13.3849 89.6808 12.5885C90.4842 11.785 90.8854 10.8198 90.8854 9.69365C90.8854 8.55998 90.4842 7.59143 89.6808 6.78751C88.8839 5.9916 87.9186 5.59317 86.7854 5.59317C85.6518 5.59317 84.6865 5.9916 83.8906 6.78751ZM86.7854 3.54834C88.4859 3.54834 89.9352 4.14763 91.1329 5.34574C92.331 6.54385 92.9307 7.99315 92.9307 9.69365C92.9307 11.3866 92.331 12.8326 91.1329 14.0303C89.9352 15.2359 88.4859 15.8385 86.7854 15.8385C85.092 15.8385 83.6432 15.2359 82.4375 14.0303C81.239 12.8326 80.6401 11.3866 80.6401 9.69365C80.6401 7.99315 81.239 6.54385 82.4375 5.34574C83.6432 4.14763 85.092 3.54834 86.7854 3.54834Z" fill="white"/>
<path fill-rule="evenodd" clip-rule="evenodd" d="M105.156 9.7153C104.955 9.91616 104.715 10.0168 104.435 10.0168C104.148 10.0168 103.904 9.91616 103.703 9.7153C103.51 9.51444 103.413 9.27407 103.413 8.99418C103.413 8.05432 103.079 7.25464 102.412 6.5942C101.752 5.9267 100.952 5.59319 100.012 5.59319C99.0718 5.59319 98.2717 5.9267 97.6122 6.5942C96.9447 7.25464 96.6112 8.05432 96.6112 8.99418V14.8163C96.6112 15.0957 96.5143 15.3366 96.3205 15.5374C96.1196 15.7383 95.8755 15.839 95.5885 15.839C95.3086 15.839 95.0687 15.7383 94.8679 15.5374C94.6665 15.3366 94.5663 15.0957 94.5663 14.8163V8.99418C94.5663 7.48749 95.097 6.2033 96.1591 5.14113C97.2208 4.07991 98.505 3.54883 100.012 3.54883C101.519 3.54883 102.803 4.07991 103.865 5.14113C104.926 6.2033 105.458 7.48749 105.458 8.99418C105.458 9.27407 105.357 9.51444 105.156 9.7153Z" fill="white"/>
</svg>
