<svg width="18" height="18" viewBox="0 0 18 18" fill="none" xmlns="http://www.w3.org/2000/svg">
<rect opacity="0.9" x="1" y="1" width="16" height="16" rx="8" stroke="#8BB6C9" stroke-width="0.8"/>
<path fill-rule="evenodd" clip-rule="evenodd" d="M7.37653 12.2902C7.15159 12.0653 7.15159 11.7006 7.37653 11.4756L13.0786 5.7735C13.3036 5.54856 13.6683 5.54856 13.8932 5.7735C14.1182 5.99845 14.1182 6.36315 13.8932 6.58809L8.19112 12.2902C7.96618 12.5151 7.60147 12.5151 7.37653 12.2902Z" fill="#7EA6B8"/>
<path fill-rule="evenodd" clip-rule="evenodd" d="M4.87507 9.03229C5.10001 8.80735 5.46471 8.80735 5.68965 9.03229L8.13341 11.4761C8.35836 11.701 8.35836 12.0657 8.13341 12.2906C7.90847 12.5156 7.54377 12.5156 7.31883 12.2906L4.87507 9.84688C4.65012 9.62194 4.65012 9.25724 4.87507 9.03229Z" fill="#7EA6B8"/>
</svg>
